<?xml version="1.0" encoding="UTF-8"?>
<svg xmlns="http://www.w3.org/2000/svg" xmlns:xlink="http://www.w3.org/1999/xlink" width="400px" height="400px" viewBox="0 0 400 400" version="1.1">
<g id="surface1">
<path style=" stroke:none;fill-rule:nonzero;fill:rgb(0%,35.686275%,73.333333%);fill-opacity:1;" d="M 194.0625 0.3125 C 189.0625 0.71875 179.59375 2.21875 178.28125 2.78125 C 177.59375 3.09375 176.8125 3.625 176.5 3.9375 C 175.90625 4.625 174.6875 8.0625 174.6875 9.125 C 174.6875 9.53125 174.40625 10.8125 174.0625 12.03125 C 173.71875 13.21875 173.4375 14.5625 173.4375 15 C 173.4375 16.0625 174.25 17.1875 175.0625 17.1875 C 175.5625 17.1875 175.65625 17.3125 175.5 17.875 C 174.84375 20.15625 174.625 22.5 174.75 26.09375 C 174.875 30.3125 175.4375 32.375 176.65625 33.40625 C 177.375 33.96875 177.34375 35.21875 176.40625 44.0625 C 173.25 74.53125 171.9375 94.78125 171.5625 118.75 C 171.21875 140.25 170.8125 143.9375 167.78125 151.78125 C 166.28125 155.625 166.03125 155.96875 160 162.65625 C 152.25 171.25 149.53125 175.375 148.0625 180.78125 L 147.375 183.28125 L 147.375 280.625 C 147.34375 373.65625 147.375 378.03125 147.90625 379.59375 C 149.5 384.1875 155.46875 390.0625 161.71875 393.21875 C 165.21875 394.96875 172.9375 397.21875 179.21875 398.28125 C 199.03125 401.6875 224.09375 399.625 237.5625 393.5 C 243.8125 390.65625 249.78125 385.03125 251.9375 380 L 252.65625 378.28125 L 252.625 280.78125 L 252.625 183.28125 L 251.9375 180.78125 C 250.46875 175.375 247.75 171.25 240 162.65625 C 233.96875 155.96875 233.71875 155.625 232.21875 151.78125 C 229.1875 143.90625 228.78125 140.28125 228.4375 118.59375 C 228.1875 101.4375 227.8125 93.4375 226.5625 76.875 C 225.8125 67.03125 224.28125 50.1875 223.4375 42.375 C 222.65625 35.4375 222.65625 33.96875 223.34375 33.40625 C 224.625 32.34375 225.125 30.34375 225.25 25.75 C 225.375 21.59375 225.125 19.40625 224.21875 17.09375 C 224.0625 16.75 224.15625 16.5625 224.46875 16.5625 C 225.375 16.5625 226.5625 15.3125 226.5625 14.34375 C 226.5625 13.21875 223.6875 4.4375 222.96875 3.34375 C 222.3125 2.3125 220.15625 1.4375 216.875 0.78125 C 213.84375 0.1875 199.15625 -0.125 194.0625 0.3125 Z M 194.0625 0.3125 "/>
</g>
</svg>
