<?xml version="1.0" encoding="utf-8"?>
<!-- Generator: Adobe Illustrator 26.3.1, SVG Export Plug-In . SVG Version: 6.00 Build 0)  -->
<svg version="1.1" id="Layer_1" xmlns="http://www.w3.org/2000/svg" xmlns:xlink="http://www.w3.org/1999/xlink" x="0px" y="0px"
	 viewBox="0 0 120 120" style="enable-background:new 0 0 120 120;" xml:space="preserve">
<g>
	<rect x="20.4" y="61.9" class="st0" width="24" height="13.6"/>
	<rect x="20.4" y="80.1" class="st0" width="24" height="13.6"/>
	<rect x="48.1" y="79.9" class="st0" width="24" height="13.6"/>
	<rect x="76.3" y="80.1" class="st0" width="24" height="13.6"/>
	<rect x="48.4" y="61.9" class="st0" width="24" height="13.6"/>
	<rect x="76.2" y="61.9" class="st0" width="24" height="13.6"/>
	<path class="st0" d="M98,20.7h-1.8v17.6c0,3.9-3.6,7-8,7c-4.4,0-8-3.2-8-7V20.7H41.3v17.6c0,3.9-3.6,7-8,7s-8-3.2-8-7V20.7H22
		c-6.6,0-12,4.7-12,10.6v66.9c0,5.8,5.4,10.6,12,10.6h76c6.6,0,12-4.7,12-10.6V31.2C110,25.4,104.6,20.7,98,20.7z M104.4,98.6h-88
		V57.1h88V98.6z"/>
	<path class="st0" d="M33.3,41.3L33.3,41.3c-2.2,0-4-1.8-4-4v-22c0-2.2,1.8-4,4-4h0c2.2,0,4,1.8,4,4v22
		C37.3,39.5,35.5,41.3,33.3,41.3z"/>
	<path class="st0" d="M88.5,41.3L88.5,41.3c-2.2,0-4-1.8-4-4v-22c0-2.2,1.8-4,4-4h0c2.2,0,4,1.8,4,4v22
		C92.5,39.5,90.7,41.3,88.5,41.3z"/>
</g>
</svg>
