<?xml version="1.0" encoding="utf-8"?>
<!-- Generator: Adobe Illustrator 26.3.1, SVG Export Plug-In . SVG Version: 6.00 Build 0)  -->
<svg version="1.1" id="Layer_1" xmlns="http://www.w3.org/2000/svg" xmlns:xlink="http://www.w3.org/1999/xlink" x="0px" y="0px"
	 viewBox="0 0 120 120" style="enable-background:new 0 0 120 120;" xml:space="preserve">
<g>
	<path d="M9.5,49.9l44,25.9c3.8,2.3,9.1,2.3,13,0l44-25.9v1.3v49.9c0,3.7-4,6.7-9,6.7H18.5c-5,0-9-3-9-6.7V51.2"/>
	<path d="M54.1,71.1c3.5,2.1,8.4,2.1,11.9,0l31-19.4V30.4H23.3v21.3L54.1,71.1z"/>
	<path d="M78.1,25.1l-11.6-7c-3.8-2.3-9.1-2.3-13,0l-11.6,7H78.1z"/>
	<polygon points="9.6,44.4 18.4,49.9 18.4,38.9 	"/>
	<polygon points="110.5,44.4 101.7,49.9 101.7,38.9 	"/>
</g>
</svg>
