<?xml version="1.0" encoding="utf-8"?>
<!-- Generator: Adobe Illustrator 26.3.1, SVG Export Plug-In . SVG Version: 6.00 Build 0)  -->
<svg version="1.1" id="Layer_1" xmlns="http://www.w3.org/2000/svg" xmlns:xlink="http://www.w3.org/1999/xlink" x="0px" y="0px"
	 viewBox="0 0 60 120" style="enable-background:new 0 0 60 120;" xml:space="preserve">
<path d="M44.3,17.4c0,7.9-6.4,14.3-14.3,14.3s-14.3-6.4-14.3-14.3S22.1,3.1,30,3.1S44.3,9.5,44.3,17.4z M33.1,35.2h-6.1
	c-8.6,0-15.6,7-15.6,15.6v21.8c0,6.1,3.5,11.3,8.5,13.9v20.1c0,5.6,4.6,10.2,10.2,10.2c5.6,0,10.2-4.6,10.2-10.2V86.5
	c5-2.6,8.5-7.8,8.5-13.9V50.8C48.7,42.2,41.7,35.2,33.1,35.2z"/>
</svg>
